<svg t="1677289172315" class="icon" viewBox="0 0 1024 1024" version="1.1" xmlns="http://www.w3.org/2000/svg" p-id="4125" width="64" height="64"><path d="M755.2 614.4c35.2 0 60.8 28.8 60.8 60.8v185.6l-121.6-44.8-121.6 44.8v-185.6c0-35.2 28.8-60.8 60.8-60.8h121.6zM208 755.2l140.8-163.2c41.6 25.6 92.8 41.6 140.8 41.6 12.8 0 28.8 0 41.6-3.2v227.2H252.8c-25.6 0-44.8-12.8-54.4-35.2s-6.4-48 9.6-67.2l140.8-163.2-140.8 163.2z m547.2-80h-121.6v96l60.8-22.4 60.8 22.4v-96zM489.6 160c112 0 204.8 92.8 204.8 204.8s-92.8 204.8-204.8 204.8-204.8-89.6-204.8-204.8S374.4 160 489.6 160z" fill="#292929" p-id="4126" data-spm-anchor-id="a313x.7781069.0.i12" class="selected"></path></svg>